<svg xmlns="http://www.w3.org/2000/svg" width="357.882" height="61.326" viewBox="0 0 357.882 61.326">
  <g id="LOGO" transform="translate(-132.111 -223)">
    <path id="Path_28889" data-name="Path 28889" d="M149.981,255.074v15.505a3.767,3.767,0,0,1-3.767,3.767h0a3.767,3.767,0,0,1-3.767-3.767V255.074H132.111v19.283a8.049,8.049,0,0,0,8.049,8.049h2.318c.471,0,2.087-.263,2.14-.277a11.866,11.866,0,0,0,6.241-4.454v4.38h9.461V255.074Z" transform="translate(0 -17.504)" fill="#fff"/>
    <path id="Path_28890" data-name="Path 28890" d="M256.183,335.534v-5.168a1.255,1.255,0,0,1,1.256-1.256h0a1.256,1.256,0,0,1,1.256,1.256v5.168h3.446v-6.427a2.683,2.683,0,0,0-2.683-2.683h-.773c-.157,0-.7.088-.713.092a3.957,3.957,0,0,0-2.08,1.485v-1.46h-3.154v8.994Z" transform="translate(-65.83 -56.442)" fill="#fff"/>
    <path id="Path_28891" data-name="Path 28891" d="M210.884,261.48l9.636-.876a9.949,9.949,0,0,0-7.884-6.833c-6.482-1.227-15.768,0-17.7,4.906a7.6,7.6,0,0,0,1.227,8.059s1.4,3.154,11.213,3.854c0,0,5.431.7,4.731,2.978s-2.628,2.453-4.731,2.453-4.2-2.453-4.2-3.5l-10.512,1.051.7,1.489.351-.088s1.051,6.483,11.738,6.483,12.089-2.278,12.089-2.278,3.5-1.752,3.5-5.256v-6.132l-1.051.175s-1.227-3.679-11.388-4.38c-5.081-.351-5.694-1.884-5.037-3.329,0,0,.482-1.4,3.285-1.4A4.733,4.733,0,0,1,210.884,261.48Z" transform="translate(-33.045 -16.552)" fill="#fff"/>
    <path id="Path_28892" data-name="Path 28892" d="M269.74,255.655a16.364,16.364,0,0,1,6.986,1.626c3.6,1.824,5.67,5.023,6.158,9.511v3.06H263.438V271.6c0,2.183,1.586,5.431,5.957,5.431a5.574,5.574,0,0,0,4.485-2.294l7.988.667c-1.544,2.24-4.967,5.5-11.8,5.5-.31,0-.628-.006-.947-.02l-.167-.006-.16.023a11.1,11.1,0,0,1-1.411.077c-3.117,0-8.749-.923-11.446-7.1-3.658-8.383,2.358-14.622,2.612-14.879l.013-.011.032-.035c.128-.134,3.219-3.295,10.806-3.295h.044l.04,0c.019,0,.11,0,.262,0m0-1.752c-.223,0-.346.006-.346.006-8.585,0-12.089,3.854-12.089,3.854s-7.183,7.183-2.978,16.819c3.168,7.261,9.916,8.155,13.051,8.155a12.4,12.4,0,0,0,1.665-.1q.521.022,1.02.021c11.756,0,14.573-8.781,14.573-8.781l-11.621-.97a4.24,4.24,0,0,1-3.622,2.372c-4.2,0-4.2-3.679-4.2-3.679h19.447V266.7c-1.27-12.221-12.748-12.8-14.9-12.8Z" transform="translate(-65.977 -16.865)" fill="#fff"/>
    <path id="Path_28893" data-name="Path 28893" d="M281.148,269.068h0a4.05,4.05,0,0,1,3.879,2.788q.091.281.157.586h-7.82a4,4,0,0,1,1.6-2.707,3.906,3.906,0,0,1,2.186-.667m0-1.752a5.644,5.644,0,0,0-3.163.965c-2.932,1.971-2.439,5.913-2.439,5.913h11.563a9.306,9.306,0,0,0-.416-2.877,5.823,5.823,0,0,0-5.546-4Z" transform="translate(-78.26 -24.185)" fill="#fff"/>
    <path id="Path_28894" data-name="Path 28894" d="M333.519,233.752a33.2,33.2,0,0,1,6.023.63l-.862,4.023c-.357-.033-.745-.055-1.142-.055a5.123,5.123,0,0,0-4.068,1.454,3.525,3.525,0,0,0-.759,2.937l.223,1.492H337.6v5.606h-4.73v18.221h-7.884V249.84H321.3v-5.606h4.184l-.559-2.186c-.009-.033-.785-3.331,1.022-5.66,1.358-1.749,3.9-2.636,7.57-2.636m0-1.752c-12.972,0-10.29,10.482-10.29,10.482H319.55v9.11h3.679v18.221h11.388V251.592h4.731v-9.11h-4.906c-.292-1.947,1.47-2.379,3.1-2.379a12.8,12.8,0,0,1,2.511.277l1.577-7.359A37.806,37.806,0,0,0,333.519,232Z" transform="translate(-102.292 -4.912)" fill="#fff"/>
    <path id="Path_28895" data-name="Path 28895" d="M281.11,326.231h-1.248A4.679,4.679,0,0,0,275.2,330.9v.416a4.481,4.481,0,0,0,4.468,4.468h1.358a4.436,4.436,0,0,0,3.961-2.461l-3.206-.378a1.427,1.427,0,0,1-1.236.65c-2.1,0-1.752-1.752-1.752-1.752h6.63a4.435,4.435,0,0,0,.027-.482v-.788A4.349,4.349,0,0,0,281.11,326.231Zm.832,4.03h-3.329s0-1.927,1.752-1.927S281.942,330.261,281.942,330.261Z" transform="translate(-78.087 -56.337)" fill="#fff"/>
    <path id="Path_28896" data-name="Path 28896" d="M307.116,327.311c-2.8-1.927-5.431.7-5.431.7v-1.226h-3.153V339.05h3.679v-4.03a3.473,3.473,0,0,0,3.433.762,4.005,4.005,0,0,0,2.618-2.863C308.674,331.269,308.98,328.593,307.116,327.311Zm-3.329,6.132a2.245,2.245,0,1,1,1.752-2.19A2.008,2.008,0,0,1,303.787,333.443Z" transform="translate(-90.821 -56.541)" fill="#fff"/>
    <path id="Path_28897" data-name="Path 28897" d="M331.1,333.94v-4.05a3.636,3.636,0,0,0-3.475-3.655c-.067,0-.135,0-.2,0-3.328,0-4.029.526-4.029.526s-2.1.526-2.1,2.278l3.5.175s.175-.876,1.577-.876a1.263,1.263,0,0,1,1.4,1.227l-3.854.876s-2.628.526-2.628,2.8,2.628,2.453,2.628,2.453,3.154,0,3.854-1.227c0,0,0,.876.7.876h2.979S331.1,335.166,331.1,333.94Zm-5.527-.222a1.287,1.287,0,0,1-.936-.689,1.183,1.183,0,0,1,.538-1,17.95,17.95,0,0,1,2.354-.789C327.866,332.752,326.954,333.892,325.571,333.718Z" transform="translate(-103.239 -56.337)" fill="#fff"/>
    <rect id="Rectangle_785" data-name="Rectangle 785" width="3.154" height="12.439" transform="translate(228.997 266.653)" fill="#fff"/>
    <g id="Group_9449" data-name="Group 9449" transform="translate(261.526 223)">
      <g id="Group_9446" data-name="Group 9446" transform="translate(0)">
        <path id="Path_28898" data-name="Path 28898" d="M417.909,223.913H417V223l.909,0Z" transform="translate(-417 -223)" fill="#fff"/>
      </g>
      <g id="Group_9447" data-name="Group 9447" transform="translate(0 3.55)">
        <path id="Path_28899" data-name="Path 28899" d="M417.909,285.041H417v-.909l.909-.009Zm0-3.555H417v-.909l.909-.009Zm0-3.554H417v-.909l.909-.009Zm0-3.554H417v-.909l.909-.009Zm0-3.554H417v-.909l.909-.009Zm0-3.554H417v-.909l.909-.009Zm0-3.554H417v-.909l.909-.009Zm0-3.554H417v-.909l.909-.009Zm0-3.554H417V255.7l.909-.009Zm0-3.554H417v-.909l.909-.009Zm0-3.554H417v-.909l.909-.009Zm0-3.554H417v-.909l.909-.009Zm0-3.554H417v-.909l.909-.009Zm0-3.554H417v-.909l.909-.009Zm0-3.554H417v-.909l.909-.009Zm0-3.554H417v-.909l.909-.009Z" transform="translate(-417 -230.814)" fill="#fff"/>
      </g>
      <g id="Group_9448" data-name="Group 9448" transform="translate(0 60.413)">
        <path id="Path_28900" data-name="Path 28900" d="M417.909,356.9H417v-.909l.909,0Z" transform="translate(-417 -355.99)" fill="#fff"/>
      </g>
    </g>
    <g id="Group_9450" data-name="Group 9450" transform="translate(284.956 236.976)">
      <path id="Path_28901" data-name="Path 28901" d="M476.091,254.191l.058.058q-.058.579-.058,2.02l-.052.051h-.3l-.051-.058-.071-.591a5.472,5.472,0,0,0-.08-.582.277.277,0,0,0-.093-.154,1.179,1.179,0,0,0-.418-.08q-.354-.032-.791-.032h-1.216q-.052,1.453-.051,1.679v3.75l.013,1.254q.006.727.035.942a.568.568,0,0,0,.09.283.5.5,0,0,0,.235.116,5.1,5.1,0,0,0,.862.074l.045.039v.322l-.045.052q-1.647-.052-1.84-.052t-1.833.052l-.051-.052v-.322l.051-.039a6.652,6.652,0,0,0,.8-.064.585.585,0,0,0,.264-.1.516.516,0,0,0,.112-.26,5.243,5.243,0,0,0,.045-.888l.013-1.357V256.5q0-.1-.051-1.679h-.958q-.592,0-1.023.025t-.5.132a2.32,2.32,0,0,0-.125.691l-.065.591-.058.058h-.3l-.051-.051q-.013-1.55-.058-2.02l.058-.058q1.12.052,3.724.051Q475.017,254.242,476.091,254.191Z" transform="translate(-468.578 -253.998)" fill="#fff"/>
      <path id="Path_28902" data-name="Path 28902" d="M487.73,254.191q1.64.052,1.84.051t1.846-.051l.051.045v.322l-.051.045q-.444.013-.685.039a.832.832,0,0,0-.351.1.454.454,0,0,0-.145.331,5.679,5.679,0,0,0-.035.724l-.013,1.48v.9q1.409.039,2.67.039,1.723,0,2.624-.039v-.9l-.013-1.255a8.974,8.974,0,0,0-.038-.945.625.625,0,0,0-.09-.283.44.44,0,0,0-.232-.116,5.572,5.572,0,0,0-.861-.071l-.045-.045v-.322l.045-.045q1.646.052,1.846.051.218,0,1.846-.051l.051.045v.322l-.051.045q-.45.013-.691.039a.832.832,0,0,0-.35.1.447.447,0,0,0-.142.331,7.18,7.18,0,0,0-.038.724l-.013,1.48v2.978l.013,1.254a8.864,8.864,0,0,0,.038.939.6.6,0,0,0,.093.283.477.477,0,0,0,.232.119,5.02,5.02,0,0,0,.859.074l.051.039v.322l-.051.052q-1.646-.052-1.846-.052t-1.846.052l-.045-.052v-.322l.045-.039a6.775,6.775,0,0,0,.8-.064.556.556,0,0,0,.263-.1.539.539,0,0,0,.11-.26,5.4,5.4,0,0,0,.044-.888l.013-1.357v-1.467q-1.9-.038-2.669-.039-.785,0-2.625.039v1.467l.006,1.254a8.829,8.829,0,0,0,.039.939.607.607,0,0,0,.093.283.482.482,0,0,0,.235.119,5.045,5.045,0,0,0,.856.074l.051.039v.322l-.051.052q-1.64-.052-1.846-.052t-1.84.052l-.051-.052v-.322l.051-.039a6.708,6.708,0,0,0,.8-.064.586.586,0,0,0,.267-.1.5.5,0,0,0,.109-.26,5.856,5.856,0,0,0,.048-.888l.007-1.357v-2.978l-.013-1.255q-.006-.733-.035-.945a.579.579,0,0,0-.09-.283.463.463,0,0,0-.235-.116,5.528,5.528,0,0,0-.855-.071l-.051-.045v-.322Z" transform="translate(-479.002 -253.998)" fill="#fff"/>
      <path id="Path_28903" data-name="Path 28903" d="M513.278,254.236l.052-.045q2.206.039,2.824.039,2.11,0,3.757-.039l.032.045a11,11,0,0,0-.238,1.936l-.039.052h-.315l-.058-.052a.965.965,0,0,0,.006-.1,6.244,6.244,0,0,0-.083-1.042,3.494,3.494,0,0,0-1.122-.235q-.717-.055-1.078-.055-.508,0-1.3.07l-.026,1.029-.02,1.177-.019,1.306q.694.038,1.28.039t.991-.039a1.653,1.653,0,0,0,.466-.081.27.27,0,0,0,.1-.16,2.39,2.39,0,0,0,.061-.422l.025-.4.052-.051h.3l.051.051q-.013.7-.032,1.409l.032,1.447-.051.052h-.3l-.052-.052-.044-.386a5.4,5.4,0,0,0-.084-.537.281.281,0,0,0-.119-.151,1.278,1.278,0,0,0-.479-.1q-.386-.039-1.061-.039-.373,0-1.139.032-.032.54-.032,1.8,0,1.35.032,1.987h1.183q1.563,0,1.956-.039a2.573,2.573,0,0,0,.746-.186q.058-.149.19-.685c.088-.358.138-.582.151-.672l.064-.045h.309l.051.045a8.957,8.957,0,0,0-.112.965q-.054.688-.054,1.177l-.046.052q-1.228-.039-3.216-.039l-1.749-.013q-.611,0-1.274.052l-.051-.052v-.212l.051-.064a3.518,3.518,0,0,0,.434-.241,5,5,0,0,0,.09-1.126q.035-1.077.036-1.643v-2.36l-.006-1.46q0-.476-.013-.775a2.411,2.411,0,0,0-.045-.428.492.492,0,0,0-.074-.18.319.319,0,0,0-.135-.087,1.511,1.511,0,0,0-.318-.061l-.489-.039-.052-.045Z" transform="translate(-492.972 -253.998)" fill="#fff"/>
      <path id="Path_28904" data-name="Path 28904" d="M539.954,254.236l.051-.045q1.6.052,1.84.051.219,0,1.847-.051l.051.045v.322l-.051.045c-.3.009-.525.022-.685.039a.835.835,0,0,0-.351.1.456.456,0,0,0-.144.331,5.671,5.671,0,0,0-.036.724l-.013,1.48v2.046q0,1.009.041,1.482a2.643,2.643,0,0,0,.18.8,1.472,1.472,0,0,0,.422.56,2.195,2.195,0,0,0,.81.382,4.438,4.438,0,0,0,1.2.148,4.335,4.335,0,0,0,1.322-.2,2.006,2.006,0,0,0,.936-.57,1.949,1.949,0,0,0,.421-.981,11.053,11.053,0,0,0,.1-1.689v-1.981q0-.5-.016-1.38a4.417,4.417,0,0,0-.077-1.01.4.4,0,0,0-.225-.2,3.581,3.581,0,0,0-.91-.08l-.052-.051v-.3l.052-.058q.952.052,1.524.051.489,0,1.518-.051l.058.051v.309l-.058.051a6,6,0,0,0-.788.048.517.517,0,0,0-.258.106.439.439,0,0,0-.109.219,6.036,6.036,0,0,0-.048.849l-.02,1.447v1.955a14.72,14.72,0,0,1-.09,1.846,2.422,2.422,0,0,1-.4,1.11,2.979,2.979,0,0,1-.74.727,3.26,3.26,0,0,1-1.1.45,6.041,6.041,0,0,1-1.389.158,5.755,5.755,0,0,1-1.592-.2,3.023,3.023,0,0,1-1.09-.527,2.074,2.074,0,0,1-.572-.691,2.614,2.614,0,0,1-.225-.855q-.051-.493-.052-1.5v-2.47l-.012-1.255q-.007-.733-.035-.945a.584.584,0,0,0-.09-.283.468.468,0,0,0-.235-.116,5.535,5.535,0,0,0-.856-.071l-.051-.045Z" transform="translate(-507.53 -253.998)" fill="#fff"/>
      <path id="Path_28905" data-name="Path 28905" d="M564.05,263.348l-.058-.058v-.3l.058-.052a4.43,4.43,0,0,0,.627-.045.475.475,0,0,0,.3-.129.605.605,0,0,0,.09-.289q.023-.2.045-.9t.023-1v-5.2a.8.8,0,0,0-.119-.486.522.522,0,0,0-.324-.2,4.3,4.3,0,0,0-.7-.048l-.052-.052v-.3l.052-.058q.887.033,1.164.032.649,0,1.068-.032l2.052,2.663,3.017,3.782q.547.688,1.112,1.306v-4.979c0-.154-.007-.483-.022-.987s-.033-.823-.055-.958a.46.46,0,0,0-.112-.273.628.628,0,0,0-.3-.106,4.509,4.509,0,0,0-.6-.042l-.051-.051v-.3l.051-.058q.52.033,1.485.032.881,0,1.28-.032l.058.058v.3l-.052.051a4.347,4.347,0,0,0-.656.048.414.414,0,0,0-.289.139.726.726,0,0,0-.08.283q-.023.187-.045.888t-.023,1.01v3.056L573,261.83l.026,1.743a10.283,10.283,0,0,0-1.113-.27l-.457-.54-1.37-1.673-4.361-5.448v4.934q0,.3.023,1.055a8.443,8.443,0,0,0,.055.919.515.515,0,0,0,.084.222.482.482,0,0,0,.222.113,3.15,3.15,0,0,0,.7.058l.051.052v.3l-.051.051a9.1,9.1,0,0,0-1.081-.045Q564.77,263.3,564.05,263.348Z" transform="translate(-520.62 -254.021)" fill="#fff"/>
      <path id="Path_28906" data-name="Path 28906" d="M589.282,254.191l.8.026q.791.025,1.036.025.219,0,1.846-.051l.051.045v.322l-.051.045q-.444.013-.685.039a.83.83,0,0,0-.35.1.455.455,0,0,0-.145.331,5.793,5.793,0,0,0-.035.724l-.013,1.48v2.978l.007,1.254a8.678,8.678,0,0,0,.039.939.591.591,0,0,0,.093.283.475.475,0,0,0,.235.119,5.032,5.032,0,0,0,.855.074l.051.039v.322l-.051.052-1.132-.039q-.457-.014-.714-.013-.2,0-1.839.052l-.052-.052v-.322l.052-.039a6.718,6.718,0,0,0,.8-.064.588.588,0,0,0,.267-.1.506.506,0,0,0,.109-.26,5.943,5.943,0,0,0,.048-.888l.007-1.357v-2.978l-.013-1.255q-.007-.733-.036-.945a.578.578,0,0,0-.09-.283.466.466,0,0,0-.234-.116,5.527,5.527,0,0,0-.855-.071l-.052-.045v-.322Z" transform="translate(-534.422 -253.998)" fill="#fff"/>
      <path id="Path_28907" data-name="Path 28907" d="M607.5,254.191l.058.058q-.058.579-.058,2.02l-.051.051h-.3l-.051-.058-.071-.591a5.4,5.4,0,0,0-.08-.582.277.277,0,0,0-.093-.154,1.178,1.178,0,0,0-.418-.08q-.354-.032-.791-.032h-1.216q-.051,1.453-.052,1.679v3.75l.014,1.254q.006.727.035.942a.564.564,0,0,0,.09.283.5.5,0,0,0,.235.116,5.082,5.082,0,0,0,.861.074l.045.039v.322l-.045.052q-1.646-.052-1.839-.052t-1.833.052l-.051-.052v-.322l.051-.039a6.643,6.643,0,0,0,.8-.064.586.586,0,0,0,.264-.1.515.515,0,0,0,.112-.26,5.24,5.24,0,0,0,.045-.888l.013-1.357V256.5q0-.1-.051-1.679h-.959q-.591,0-1.023.025t-.5.132a2.332,2.332,0,0,0-.126.691l-.064.591-.058.058h-.3l-.051-.051q-.012-1.55-.058-2.02l.058-.058q1.12.052,3.724.051Q606.429,254.242,607.5,254.191Z" transform="translate(-540.294 -253.998)" fill="#fff"/>
      <path id="Path_28908" data-name="Path 28908" d="M619.4,254.236l.052-.045q2.207.039,2.824.039,2.11,0,3.757-.039l.032.045a11,11,0,0,0-.238,1.936l-.039.052h-.315l-.058-.052a.978.978,0,0,0,.006-.1,6.244,6.244,0,0,0-.083-1.042,3.494,3.494,0,0,0-1.122-.235q-.717-.055-1.078-.055-.508,0-1.3.07l-.026,1.029-.02,1.177-.019,1.306q.694.038,1.28.039t.991-.039a1.654,1.654,0,0,0,.466-.081.27.27,0,0,0,.1-.16,2.393,2.393,0,0,0,.061-.422l.026-.4.052-.051h.3l.051.051q-.013.7-.032,1.409l.032,1.447-.051.052h-.3l-.052-.052-.045-.386a5.376,5.376,0,0,0-.084-.537.281.281,0,0,0-.119-.151,1.279,1.279,0,0,0-.479-.1q-.386-.039-1.061-.039-.373,0-1.139.032-.032.54-.032,1.8,0,1.35.032,1.987h1.183q1.563,0,1.956-.039a2.574,2.574,0,0,0,.746-.186q.058-.149.19-.685t.151-.672l.064-.045h.309l.051.045a8.99,8.99,0,0,0-.112.965q-.054.688-.055,1.177l-.045.052q-1.228-.039-3.216-.039l-1.749-.013q-.611,0-1.274.052l-.051-.052v-.212l.051-.064a3.531,3.531,0,0,0,.434-.241,5.012,5.012,0,0,0,.09-1.126q.035-1.077.035-1.643v-2.36l-.006-1.46q0-.476-.013-.775a2.441,2.441,0,0,0-.045-.428.491.491,0,0,0-.074-.18.319.319,0,0,0-.135-.087,1.509,1.509,0,0,0-.318-.061l-.489-.039-.052-.045Z" transform="translate(-550.888 -253.998)" fill="#fff"/>
      <path id="Path_28909" data-name="Path 28909" d="M637.668,254.221l.051-.045q1.113.052,1.518.051l3.01-.064a7.694,7.694,0,0,1,2.11.241,3.623,3.623,0,0,1,1.463.836,3.97,3.97,0,0,1,.971,1.383,4.3,4.3,0,0,1,.331,1.682,5.074,5.074,0,0,1-.3,1.718,4.982,4.982,0,0,1-.858,1.521,4.7,4.7,0,0,1-1.267,1.084,4.579,4.579,0,0,1-1.425.55,7.655,7.655,0,0,1-1.46.139q-.5,0-1.891-.039-.457-.014-.6-.013-.444,0-1.074.052l-.052-.052v-.212l.052-.064a3.529,3.529,0,0,0,.434-.241,5.042,5.042,0,0,0,.09-1.126q.036-1.077.035-1.644v-2.36l-.006-1.46q0-.476-.013-.775a2.459,2.459,0,0,0-.045-.428.472.472,0,0,0-.074-.18.315.315,0,0,0-.134-.087,1.524,1.524,0,0,0-.319-.061l-.489-.039-.051-.045Zm2.38,8.394a7.917,7.917,0,0,0,1.512.129,4.911,4.911,0,0,0,2.4-.5,3.121,3.121,0,0,0,1.341-1.486,5.345,5.345,0,0,0,.443-2.219,3.893,3.893,0,0,0-.971-2.824,4.1,4.1,0,0,0-3.062-1,10.408,10.408,0,0,0-1.66.129q-.051,1.056-.051,2.38v2.02l.013,1.891Q640.009,261.682,640.048,262.615Z" transform="translate(-560.856 -253.983)" fill="#fff"/>
      <path id="Path_28910" data-name="Path 28910" d="M670.26,260.835l.051-.051h.315l.051.051a5.951,5.951,0,0,0,.087,1.007.819.819,0,0,0,.348.386,2.5,2.5,0,0,0,.778.331,3.811,3.811,0,0,0,.981.129,2.893,2.893,0,0,0,1.226-.251,1.92,1.92,0,0,0,.846-.737,2.021,2.021,0,0,0,.3-1.09,1.761,1.761,0,0,0-.145-.74,1.266,1.266,0,0,0-.405-.5,1.824,1.824,0,0,0-.6-.283q-.335-.093-1-.2-.643-.1-1.007-.186a3.456,3.456,0,0,1-.724-.258,1.921,1.921,0,0,1-.6-.441,2.013,2.013,0,0,1-.386-.656,2.374,2.374,0,0,1-.144-.833,2.557,2.557,0,0,1,.836-1.972,3.187,3.187,0,0,1,2.245-.769,6,6,0,0,1,1.219.138,4.929,4.929,0,0,1,1.2.409l.045.077a8.77,8.77,0,0,0-.174,1.685l-.058.051h-.334l-.051-.045q-.013-.772-.039-.971t-.586-.5a2.562,2.562,0,0,0-1.216-.3,2.427,2.427,0,0,0-1.023.219,1.5,1.5,0,0,0-.721.688,2.058,2.058,0,0,0-.244.959,1.471,1.471,0,0,0,.148.672,1.262,1.262,0,0,0,.383.463,1.648,1.648,0,0,0,.546.254q.312.083,1.142.206a6.786,6.786,0,0,1,1.656.389,1.842,1.842,0,0,1,.829.724,2.2,2.2,0,0,1,.313,1.2,2.835,2.835,0,0,1-1.116,2.283,4.132,4.132,0,0,1-2.705.913,5.392,5.392,0,0,1-2.335-.476l-.039-.084A18.885,18.885,0,0,0,670.26,260.835Z" transform="translate(-578.59 -253.766)" fill="#fff"/>
      <path id="Path_28911" data-name="Path 28911" d="M693.705,254.191l.058.058q-.058.579-.058,2.02l-.051.051h-.3l-.051-.058-.071-.591a5.486,5.486,0,0,0-.08-.582.274.274,0,0,0-.093-.154,1.179,1.179,0,0,0-.418-.08q-.354-.032-.791-.032H690.63q-.051,1.453-.051,1.679v3.75l.013,1.254q.006.727.035.942a.563.563,0,0,0,.09.283.5.5,0,0,0,.235.116,5.087,5.087,0,0,0,.861.074l.045.039v.322l-.045.052q-1.646-.052-1.839-.052t-1.834.052l-.051-.052v-.322l.051-.039a6.645,6.645,0,0,0,.8-.064.584.584,0,0,0,.264-.1.517.517,0,0,0,.112-.26,5.191,5.191,0,0,0,.045-.888l.013-1.357V256.5q0-.1-.051-1.679h-.958q-.592,0-1.023.025c-.288.017-.453.061-.5.132a2.323,2.323,0,0,0-.125.691l-.064.591-.058.058h-.3l-.052-.051q-.012-1.55-.058-2.02l.058-.058q1.12.052,3.725.051Q692.631,254.242,693.705,254.191Z" transform="translate(-587.338 -253.998)" fill="#fff"/>
      <path id="Path_28912" data-name="Path 28912" d="M703.269,263.224l-.058-.052v-.334l.058-.051a2.75,2.75,0,0,0,.6-.049.512.512,0,0,0,.241-.167,5.344,5.344,0,0,0,.428-.82l.676-1.467,1.749-3.962q.5-1.164.984-2.329h.418l2.747,6.458.367.862q.161.367.37.8a2.432,2.432,0,0,0,.29.508.535.535,0,0,0,.2.119,2.131,2.131,0,0,0,.531.049l.051.051v.334l-.051.052q-.681-.058-1.229-.058-1.068.032-2.135.058l-.051-.052v-.334l.051-.051a5.177,5.177,0,0,0,.9-.061.214.214,0,0,0,.18-.222,1.1,1.1,0,0,0-.09-.373l-.791-1.962h-3.725l-.7,1.647a1.939,1.939,0,0,0-.187.65.252.252,0,0,0,.174.238,2.953,2.953,0,0,0,.875.084l.058.051v.334l-.051.052q-.83-.052-1.454-.052Q703.989,263.172,703.269,263.224Zm2.933-3.609h3.255l-1.615-3.879Z" transform="translate(-596.625 -253.89)" fill="#fff"/>
      <path id="Path_28913" data-name="Path 28913" d="M732.346,254.191l.058.058q-.058.579-.058,2.02l-.051.051h-.3l-.052-.058-.071-.591a5.34,5.34,0,0,0-.08-.582.274.274,0,0,0-.093-.154,1.172,1.172,0,0,0-.418-.08q-.354-.032-.791-.032h-1.216q-.052,1.453-.052,1.679v3.75l.014,1.254c0,.485.016.8.035.942a.564.564,0,0,0,.09.283.5.5,0,0,0,.235.116,5.076,5.076,0,0,0,.861.074l.045.039v.322l-.045.052q-1.646-.052-1.839-.052t-1.833.052l-.051-.052v-.322l.051-.039a6.644,6.644,0,0,0,.8-.064.586.586,0,0,0,.264-.1.523.523,0,0,0,.112-.26,5.246,5.246,0,0,0,.045-.888l.013-1.357V256.5q0-.1-.051-1.679h-.959q-.592,0-1.023.025t-.5.132a2.331,2.331,0,0,0-.126.691l-.063.591-.058.058h-.3l-.051-.051q-.013-1.55-.058-2.02l.058-.058q1.12.052,3.724.051Q731.272,254.242,732.346,254.191Z" transform="translate(-608.425 -253.998)" fill="#fff"/>
      <path id="Path_28914" data-name="Path 28914" d="M744.244,254.236l.051-.045q2.207.039,2.824.039,2.11,0,3.757-.039l.032.045a11.02,11.02,0,0,0-.238,1.936l-.039.052h-.316l-.058-.052a.883.883,0,0,0,.006-.1,6.243,6.243,0,0,0-.083-1.042,3.492,3.492,0,0,0-1.122-.235q-.717-.055-1.077-.055-.508,0-1.3.07l-.026,1.029-.02,1.177-.019,1.306q.694.038,1.28.039t.991-.039a1.654,1.654,0,0,0,.466-.081.27.27,0,0,0,.1-.16,2.449,2.449,0,0,0,.06-.422l.026-.4.051-.051h.3l.051.051q-.014.7-.032,1.409l.032,1.447-.051.052h-.3l-.051-.052-.045-.386a5.316,5.316,0,0,0-.083-.537.282.282,0,0,0-.119-.151,1.282,1.282,0,0,0-.479-.1q-.386-.039-1.061-.039-.373,0-1.139.032-.032.54-.033,1.8,0,1.35.033,1.987H747.8q1.563,0,1.956-.039a2.567,2.567,0,0,0,.746-.186q.058-.149.19-.685t.151-.672l.064-.045h.309l.051.045a8.929,8.929,0,0,0-.112.965q-.055.688-.055,1.177l-.045.052q-1.229-.039-3.216-.039l-1.749-.013q-.611,0-1.274.052l-.051-.052v-.212l.051-.064a3.52,3.52,0,0,0,.434-.241,5.039,5.039,0,0,0,.09-1.126q.035-1.077.035-1.643v-2.36l-.006-1.46q0-.476-.013-.775a2.394,2.394,0,0,0-.044-.428.491.491,0,0,0-.074-.18.323.323,0,0,0-.135-.087,1.51,1.51,0,0,0-.318-.061l-.489-.039-.051-.045Z" transform="translate(-619.018 -253.998)" fill="#fff"/>
      <path id="Path_28915" data-name="Path 28915" d="M763.088,260.835l.051-.051h.315l.051.051a5.961,5.961,0,0,0,.087,1.007.822.822,0,0,0,.348.386,2.5,2.5,0,0,0,.778.331,3.813,3.813,0,0,0,.981.129,2.892,2.892,0,0,0,1.226-.251,1.92,1.92,0,0,0,.846-.737,2.021,2.021,0,0,0,.3-1.09,1.76,1.76,0,0,0-.145-.74,1.261,1.261,0,0,0-.405-.5,1.824,1.824,0,0,0-.6-.283q-.335-.093-1-.2-.643-.1-1.007-.186a3.454,3.454,0,0,1-.724-.258,1.926,1.926,0,0,1-.6-.441,2.019,2.019,0,0,1-.386-.656,2.385,2.385,0,0,1-.145-.833,2.557,2.557,0,0,1,.836-1.972,3.187,3.187,0,0,1,2.245-.769,6,6,0,0,1,1.219.138,4.93,4.93,0,0,1,1.2.409l.044.077a8.776,8.776,0,0,0-.173,1.685l-.058.051h-.334l-.051-.045q-.013-.772-.039-.971t-.586-.5a2.562,2.562,0,0,0-1.216-.3,2.428,2.428,0,0,0-1.023.219,1.5,1.5,0,0,0-.72.688,2.058,2.058,0,0,0-.244.959,1.471,1.471,0,0,0,.148.672,1.263,1.263,0,0,0,.383.463,1.649,1.649,0,0,0,.546.254q.312.083,1.142.206a6.786,6.786,0,0,1,1.656.389,1.842,1.842,0,0,1,.829.724,2.2,2.2,0,0,1,.313,1.2,2.834,2.834,0,0,1-1.116,2.283,4.132,4.132,0,0,1-2.705.913,5.392,5.392,0,0,1-2.335-.476l-.039-.084A18.925,18.925,0,0,0,763.088,260.835Z" transform="translate(-629.249 -253.766)" fill="#fff"/>
      <path id="Path_28916" data-name="Path 28916" d="M469.059,281.033l.051-.045q2.206.038,2.824.039,2.11,0,3.756-.039l.032.045a10.949,10.949,0,0,0-.238,1.937l-.039.051h-.315l-.058-.051a1.022,1.022,0,0,0,.006-.1,6.3,6.3,0,0,0-.084-1.043,3.51,3.51,0,0,0-1.122-.234q-.718-.055-1.078-.055-.508,0-1.3.071l-.026,1.029-.019,1.177-.02,1.306q.7.039,1.28.039t.991-.039a1.672,1.672,0,0,0,.467-.08.27.27,0,0,0,.1-.16,2.4,2.4,0,0,0,.061-.422l.026-.4.051-.051h.3l.051.051q-.013.7-.032,1.409l.032,1.447-.051.052h-.3l-.051-.052-.045-.386c-.039-.3-.067-.479-.084-.537a.286.286,0,0,0-.119-.151,1.287,1.287,0,0,0-.479-.1q-.386-.039-1.061-.038-.373,0-1.139.032-.032.54-.032,1.8,0,1.351.032,1.987h1.184q1.563,0,1.955-.038a2.6,2.6,0,0,0,.746-.187q.058-.148.19-.685t.151-.672l.065-.045h.309l.051.045a8.867,8.867,0,0,0-.113.964q-.054.689-.055,1.178l-.045.051q-1.229-.038-3.216-.039l-1.75-.013q-.611,0-1.274.051l-.051-.051v-.212l.051-.065a3.419,3.419,0,0,0,.434-.241,5.053,5.053,0,0,0,.09-1.126q.035-1.077.035-1.643v-2.361l-.006-1.46q0-.477-.013-.775a2.435,2.435,0,0,0-.045-.428.5.5,0,0,0-.074-.18.316.316,0,0,0-.135-.087,1.505,1.505,0,0,0-.318-.061l-.489-.039-.051-.045Z" transform="translate(-468.84 -268.622)" fill="#fff"/>
      <path id="Path_28917" data-name="Path 28917" d="M487.325,281.017l.051-.045q1.113.051,1.518.051l3.01-.064a7.686,7.686,0,0,1,2.11.241,3.622,3.622,0,0,1,1.464.836,3.968,3.968,0,0,1,.971,1.383,4.3,4.3,0,0,1,.332,1.682,5.092,5.092,0,0,1-.3,1.718,5,5,0,0,1-.859,1.521,4.7,4.7,0,0,1-1.267,1.084,4.579,4.579,0,0,1-1.425.55,7.66,7.66,0,0,1-1.46.138q-.5,0-1.891-.039-.457-.012-.6-.013-.444,0-1.074.051l-.051-.051v-.212l.051-.065a3.458,3.458,0,0,0,.434-.241,5.036,5.036,0,0,0,.09-1.126q.035-1.077.035-1.644v-2.361l-.006-1.46c0-.318,0-.576-.013-.775a2.388,2.388,0,0,0-.045-.428.478.478,0,0,0-.074-.18.314.314,0,0,0-.135-.087,1.512,1.512,0,0,0-.318-.061l-.489-.039-.051-.045Zm2.38,8.394a7.911,7.911,0,0,0,1.512.129,4.905,4.905,0,0,0,2.4-.5,3.12,3.12,0,0,0,1.341-1.485,5.347,5.347,0,0,0,.444-2.22,3.892,3.892,0,0,0-.972-2.824,4.1,4.1,0,0,0-3.062-1,10.448,10.448,0,0,0-1.659.129q-.052,1.055-.051,2.38v2.02l.013,1.891Q489.666,288.478,489.7,289.412Z" transform="translate(-478.809 -268.606)" fill="#fff"/>
      <path id="Path_28918" data-name="Path 28918" d="M510.929,281.033l.051-.045q1.6.051,1.84.051.219,0,1.846-.051l.052.045v.322l-.052.045c-.3.009-.524.021-.686.039a.84.84,0,0,0-.35.1.456.456,0,0,0-.144.332,5.681,5.681,0,0,0-.036.724l-.013,1.48v2.045q0,1.01.042,1.483a2.635,2.635,0,0,0,.18.8,1.469,1.469,0,0,0,.422.56,2.19,2.19,0,0,0,.81.383,4.423,4.423,0,0,0,1.2.148,4.32,4.32,0,0,0,1.322-.2,2.008,2.008,0,0,0,.936-.57,1.953,1.953,0,0,0,.421-.981,11.061,11.061,0,0,0,.1-1.689v-1.981q0-.5-.016-1.38a4.358,4.358,0,0,0-.077-1.01.4.4,0,0,0-.225-.2,3.576,3.576,0,0,0-.91-.08l-.051-.051v-.3l.051-.058q.953.051,1.525.051.489,0,1.518-.051l.058.051v.309l-.058.051a6.022,6.022,0,0,0-.788.048.519.519,0,0,0-.257.106.431.431,0,0,0-.11.218,6.035,6.035,0,0,0-.048.849l-.019,1.448v1.955a14.744,14.744,0,0,1-.09,1.846,2.42,2.42,0,0,1-.4,1.11,2.979,2.979,0,0,1-.74.727,3.265,3.265,0,0,1-1.1.45,6.044,6.044,0,0,1-1.389.158,5.75,5.75,0,0,1-1.592-.2,3.033,3.033,0,0,1-1.091-.527,2.075,2.075,0,0,1-.572-.692,2.629,2.629,0,0,1-.225-.855q-.051-.493-.051-1.5v-2.47l-.012-1.254q-.007-.733-.035-.946a.58.58,0,0,0-.09-.283.46.46,0,0,0-.234-.116,5.545,5.545,0,0,0-.856-.071l-.051-.045Z" transform="translate(-491.69 -268.622)" fill="#fff"/>
      <path id="Path_28919" data-name="Path 28919" d="M543.743,288.766l-.245.6a6.63,6.63,0,0,1-3.048.727,5.391,5.391,0,0,1-3.773-1.319,4.44,4.44,0,0,1-1.45-3.448,4.546,4.546,0,0,1,.723-2.563,4.487,4.487,0,0,1,1.91-1.641,6.341,6.341,0,0,1,2.667-.543,7.99,7.99,0,0,1,1.691.18,7.115,7.115,0,0,1,1.4.431l.045.064a8.2,8.2,0,0,0-.276,1.782l-.046.052h-.3l-.051-.052-.064-1.093a3.465,3.465,0,0,0-1.136-.582,4.592,4.592,0,0,0-1.386-.209,4.033,4.033,0,0,0-1.949.467,3.253,3.253,0,0,0-1.338,1.351,4.52,4.52,0,0,0-.476,2.165,4.442,4.442,0,0,0,.56,2.257,3.823,3.823,0,0,0,1.528,1.492,4.692,4.692,0,0,0,2.261.522,5.384,5.384,0,0,0,1.1-.109,4.176,4.176,0,0,0,.879-.27,3.978,3.978,0,0,0,.672-.393Z" transform="translate(-504.951 -268.398)" fill="#fff"/>
      <path id="Path_28920" data-name="Path 28920" d="M556.495,290.02l-.058-.051v-.334l.058-.052a2.737,2.737,0,0,0,.605-.048.515.515,0,0,0,.241-.167,5.326,5.326,0,0,0,.427-.82l.675-1.466,1.75-3.963q.5-1.165.984-2.329h.418l2.747,6.458.366.862q.161.366.37.8a2.41,2.41,0,0,0,.29.508.533.533,0,0,0,.2.119,2.122,2.122,0,0,0,.531.048l.051.052v.334l-.051.051q-.681-.058-1.228-.058-1.068.032-2.135.058l-.051-.051v-.334l.051-.052a5.131,5.131,0,0,0,.9-.061.214.214,0,0,0,.18-.222,1.1,1.1,0,0,0-.09-.373l-.791-1.962h-3.724l-.7,1.647a1.952,1.952,0,0,0-.186.65.252.252,0,0,0,.174.239,2.941,2.941,0,0,0,.875.083l.057.052v.334l-.051.051q-.83-.051-1.454-.051Q557.216,289.969,556.495,290.02Zm2.933-3.608h3.255l-1.615-3.879Z" transform="translate(-516.526 -268.514)" fill="#fff"/>
      <path id="Path_28921" data-name="Path 28921" d="M585.572,280.988l.058.058q-.058.579-.058,2.02l-.052.051h-.3l-.051-.058-.071-.592a5.386,5.386,0,0,0-.08-.582.274.274,0,0,0-.093-.154,1.176,1.176,0,0,0-.418-.08c-.235-.022-.5-.032-.791-.032H582.5q-.051,1.454-.051,1.679v3.75l.013,1.255q.006.726.035.942a.563.563,0,0,0,.09.283.493.493,0,0,0,.235.116,5.142,5.142,0,0,0,.862.074l.045.039v.322l-.045.051q-1.646-.051-1.839-.051t-1.833.051l-.052-.051v-.322l.052-.039a6.741,6.741,0,0,0,.8-.064.583.583,0,0,0,.264-.1.516.516,0,0,0,.112-.26,5.211,5.211,0,0,0,.045-.888l.013-1.357V283.3q0-.1-.051-1.679h-.958q-.591,0-1.022.026c-.288.017-.453.061-.5.132a2.34,2.34,0,0,0-.125.691l-.064.592-.058.058h-.3l-.051-.051q-.013-1.551-.058-2.02l.058-.058q1.119.051,3.724.051Q584.5,281.039,585.572,280.988Z" transform="translate(-528.326 -268.622)" fill="#fff"/>
      <path id="Path_28922" data-name="Path 28922" d="M597.211,280.988l.8.025q.791.026,1.035.026.219,0,1.847-.051l.051.045v.322l-.051.045q-.444.013-.685.039a.839.839,0,0,0-.351.1.455.455,0,0,0-.145.332,5.7,5.7,0,0,0-.035.724l-.013,1.48v2.978l.006,1.255a8.85,8.85,0,0,0,.039.939.6.6,0,0,0,.093.283.481.481,0,0,0,.235.119,5.086,5.086,0,0,0,.855.074l.051.039v.322l-.051.051-1.132-.039q-.457-.012-.715-.013-.2,0-1.839.051l-.051-.051v-.322l.051-.039a6.825,6.825,0,0,0,.8-.064.586.586,0,0,0,.267-.1.5.5,0,0,0,.109-.26,5.85,5.85,0,0,0,.048-.888l.007-1.357v-2.978l-.013-1.254q-.007-.733-.035-.946a.575.575,0,0,0-.09-.283.462.462,0,0,0-.235-.116,5.538,5.538,0,0,0-.855-.071l-.051-.045v-.322Z" transform="translate(-538.75 -268.622)" fill="#fff"/>
      <path id="Path_28923" data-name="Path 28923" d="M608.047,285.428a5.7,5.7,0,0,1,.277-1.8,4.174,4.174,0,0,1,.942-1.547,4.565,4.565,0,0,1,1.605-1.1,5.5,5.5,0,0,1,2.122-.389,4.963,4.963,0,0,1,3.493,1.193,4.2,4.2,0,0,1,1.3,3.258,5.332,5.332,0,0,1-.636,2.611,4.463,4.463,0,0,1-1.824,1.8,5.5,5.5,0,0,1-2.667.643,5.172,5.172,0,0,1-1.93-.351,3.934,3.934,0,0,1-1.5-1.045,4.237,4.237,0,0,1-.9-1.608A5.728,5.728,0,0,1,608.047,285.428Zm1.338-.425a6.256,6.256,0,0,0,.254,1.689,4.432,4.432,0,0,0,.759,1.55,3.264,3.264,0,0,0,1.164.962,3.7,3.7,0,0,0,3.278-.142,2.866,2.866,0,0,0,1.183-1.418,5.5,5.5,0,0,0,.406-2.158,5.753,5.753,0,0,0-.463-2.348,3.1,3.1,0,0,0-1.319-1.524,3.838,3.838,0,0,0-1.9-.476,3.183,3.183,0,0,0-2.464.978A4.126,4.126,0,0,0,609.385,285Z" transform="translate(-544.691 -268.405)" fill="#fff"/>
      <path id="Path_28924" data-name="Path 28924" d="M632.128,290.145l-.058-.058v-.3l.058-.051a4.591,4.591,0,0,0,.627-.045.473.473,0,0,0,.3-.129.6.6,0,0,0,.09-.289q.022-.2.045-.9t.022-1v-5.2a.809.809,0,0,0-.119-.486.522.522,0,0,0-.325-.2,4.243,4.243,0,0,0-.7-.048l-.051-.052v-.3l.051-.058q.888.033,1.164.032.649,0,1.068-.032l2.052,2.663,3.017,3.782q.547.688,1.112,1.306V283.8c0-.154-.007-.483-.022-.987s-.033-.824-.055-.958a.458.458,0,0,0-.112-.273.628.628,0,0,0-.3-.106,4.433,4.433,0,0,0-.6-.042l-.051-.051v-.3l.051-.058q.52.033,1.486.032.881,0,1.28-.032l.058.058v.3l-.051.051a4.352,4.352,0,0,0-.656.048.411.411,0,0,0-.289.139.724.724,0,0,0-.081.283q-.023.186-.045.888t-.023,1.01v3.055l.006,1.769q.014.867.026,1.743a10.367,10.367,0,0,0-1.113-.27l-.457-.54-1.37-1.673-4.361-5.448v4.934q0,.3.023,1.055a8.484,8.484,0,0,0,.054.92.517.517,0,0,0,.084.222.482.482,0,0,0,.222.113,3.175,3.175,0,0,0,.7.058l.051.051v.3l-.051.052a8.97,8.97,0,0,0-1.081-.045Q632.849,290.1,632.128,290.145Z" transform="translate(-557.773 -268.645)" fill="#fff"/>
      <path id="Path_28925" data-name="Path 28925" d="M657.14,290.02l-.058-.051v-.334l.058-.052a2.733,2.733,0,0,0,.6-.048.515.515,0,0,0,.241-.167,5.265,5.265,0,0,0,.428-.82l.675-1.466,1.75-3.963q.495-1.165.984-2.329h.417l2.747,6.458.367.862q.161.366.37.8a2.44,2.44,0,0,0,.29.508.535.535,0,0,0,.2.119,2.116,2.116,0,0,0,.531.048l.051.052v.334l-.051.051q-.681-.058-1.228-.058-1.068.032-2.136.058l-.051-.051v-.334l.051-.052a5.14,5.14,0,0,0,.9-.061.214.214,0,0,0,.18-.222,1.1,1.1,0,0,0-.09-.373l-.791-1.962h-3.724l-.7,1.647a1.943,1.943,0,0,0-.187.65.252.252,0,0,0,.174.239,2.944,2.944,0,0,0,.875.083l.058.052v.334l-.051.051q-.83-.051-1.454-.051Q657.86,289.969,657.14,290.02Zm2.933-3.608h3.255l-1.614-3.879Z" transform="translate(-571.451 -268.514)" fill="#fff"/>
      <path id="Path_28926" data-name="Path 28926" d="M680.826,281.033l.051-.045q1.6.051,1.84.051.219,0,1.846-.051l.051.045v.322l-.051.045q-.444.013-.685.039a.844.844,0,0,0-.351.1.457.457,0,0,0-.144.332,5.686,5.686,0,0,0-.035.724l-.012,1.48v2.843q0,1.068.012,1.492l.032,1.113h1.312q1.57,0,1.958-.038a2.676,2.676,0,0,0,.75-.187,5.362,5.362,0,0,0,.2-.74q.132-.579.139-.669l.058-.051h.315l.045.051a9.887,9.887,0,0,0-.106,1q-.054.74-.054,1.2l-.051.051q-1.222-.038-3.21-.039l-1.878-.013q-.643,0-1.312.051l-.051-.051v-.212l.051-.065a2.717,2.717,0,0,0,.437-.251,4.1,4.1,0,0,0,.081-.83q.042-.785.042-1.891v-2.76l-.013-1.254q-.007-.733-.035-.946a.577.577,0,0,0-.09-.283.463.463,0,0,0-.235-.116,5.538,5.538,0,0,0-.856-.071l-.051-.045Z" transform="translate(-584.409 -268.622)" fill="#fff"/>
      <path id="Path_28927" data-name="Path 28927" d="M710.748,285.741v1.306l.006,1.255a8.881,8.881,0,0,0,.039.929.611.611,0,0,0,.093.3.5.5,0,0,0,.235.116,5.1,5.1,0,0,0,.856.074l.051.039v.322l-.051.051q-1.635-.051-1.847-.051t-1.839.051l-.052-.051v-.322l.052-.039a6.745,6.745,0,0,0,.8-.064.554.554,0,0,0,.264-.1.522.522,0,0,0,.109-.257,5.763,5.763,0,0,0,.048-.875l.006-1.37v-2.978l-.013-1.254q-.006-.733-.035-.946a.582.582,0,0,0-.09-.283.464.464,0,0,0-.235-.116,5.536,5.536,0,0,0-.855-.071l-.052-.045v-.322l.052-.045q2.727.038,3.184.039,1.531,0,3.139-.039l.052.045a3.226,3.226,0,0,0-.135.73q-.032.409-.071,1.155l-.052.052h-.3l-.045-.052c-.009-.03-.028-.195-.058-.5a4.567,4.567,0,0,0-.1-.65,6.012,6.012,0,0,0-1.846-.225,11.485,11.485,0,0,0-1.235.077,24.112,24.112,0,0,0-.071,2.444v1.113q.817.012,1.112.012a8.952,8.952,0,0,0,.939-.042,2.014,2.014,0,0,0,.469-.08.255.255,0,0,0,.119-.144,2.243,2.243,0,0,0,.081-.466l.038-.348.045-.051h.328l.051.058-.045,1.408q0,.245.02.708.025.527.025.817l-.058.051h-.322l-.045-.051-.026-.547a2.216,2.216,0,0,0-.064-.469.284.284,0,0,0-.148-.193,1.932,1.932,0,0,0-.457-.084q-.354-.038-1.087-.038Q711.076,285.722,710.748,285.741Z" transform="translate(-599.369 -268.622)" fill="#fff"/>
      <path id="Path_28928" data-name="Path 28928" d="M725.556,285.428a5.7,5.7,0,0,1,.277-1.8,4.171,4.171,0,0,1,.942-1.547,4.567,4.567,0,0,1,1.6-1.1,5.5,5.5,0,0,1,2.122-.389A4.964,4.964,0,0,1,734,281.784a4.2,4.2,0,0,1,1.3,3.258,5.337,5.337,0,0,1-.636,2.611,4.466,4.466,0,0,1-1.824,1.8,5.5,5.5,0,0,1-2.667.643,5.172,5.172,0,0,1-1.93-.351,3.936,3.936,0,0,1-1.5-1.045,4.241,4.241,0,0,1-.9-1.608A5.728,5.728,0,0,1,725.556,285.428Zm1.338-.425a6.237,6.237,0,0,0,.254,1.689,4.438,4.438,0,0,0,.759,1.55,3.268,3.268,0,0,0,1.164.962,3.7,3.7,0,0,0,3.277-.142,2.868,2.868,0,0,0,1.183-1.418,5.506,5.506,0,0,0,.406-2.158,5.746,5.746,0,0,0-.463-2.348,3.1,3.1,0,0,0-1.319-1.524,3.838,3.838,0,0,0-1.9-.476,3.184,3.184,0,0,0-2.464.978A4.128,4.128,0,0,0,726.894,285Z" transform="translate(-608.82 -268.405)" fill="#fff"/>
      <path id="Path_28929" data-name="Path 28929" d="M749.259,281.033l.051-.045q1.6.051,1.84.051.219,0,1.846-.051l.052.045v.322L753,281.4q-.444.013-.685.039a.84.84,0,0,0-.351.1.455.455,0,0,0-.144.332,5.686,5.686,0,0,0-.035.724l-.013,1.48v2.045q0,1.01.042,1.483a2.635,2.635,0,0,0,.18.8,1.463,1.463,0,0,0,.421.56,2.19,2.19,0,0,0,.81.383,4.423,4.423,0,0,0,1.2.148,4.32,4.32,0,0,0,1.322-.2,2.008,2.008,0,0,0,.936-.57,1.954,1.954,0,0,0,.421-.981,11.061,11.061,0,0,0,.1-1.689v-1.981q0-.5-.016-1.38a4.356,4.356,0,0,0-.077-1.01.4.4,0,0,0-.225-.2,3.578,3.578,0,0,0-.91-.08l-.051-.051v-.3l.051-.058q.953.051,1.525.051.489,0,1.518-.051l.058.051v.309l-.058.051a6.023,6.023,0,0,0-.788.048.52.52,0,0,0-.257.106.431.431,0,0,0-.109.218,6.035,6.035,0,0,0-.048.849l-.02,1.448v1.955a14.758,14.758,0,0,1-.09,1.846,2.42,2.42,0,0,1-.4,1.11,2.983,2.983,0,0,1-.74.727,3.267,3.267,0,0,1-1.1.45,6.044,6.044,0,0,1-1.389.158,5.75,5.75,0,0,1-1.592-.2,3.034,3.034,0,0,1-1.091-.527,2.068,2.068,0,0,1-.572-.692,2.621,2.621,0,0,1-.226-.855q-.051-.493-.051-1.5v-2.47l-.012-1.254q-.007-.733-.035-.946a.581.581,0,0,0-.09-.283.461.461,0,0,0-.234-.116,5.544,5.544,0,0,0-.856-.071l-.051-.045Z" transform="translate(-621.755 -268.622)" fill="#fff"/>
      <path id="Path_28930" data-name="Path 28930" d="M773.354,290.145l-.058-.058v-.3l.058-.051a4.585,4.585,0,0,0,.627-.045.47.47,0,0,0,.3-.129.6.6,0,0,0,.09-.289q.023-.2.045-.9t.023-1v-5.2a.806.806,0,0,0-.119-.486.522.522,0,0,0-.325-.2,4.235,4.235,0,0,0-.7-.048l-.051-.052v-.3l.051-.058q.888.033,1.165.032.649,0,1.068-.032l2.052,2.663,3.017,3.782q.547.688,1.113,1.306V283.8q0-.232-.022-.987t-.055-.958a.46.46,0,0,0-.112-.273.628.628,0,0,0-.3-.106,4.44,4.44,0,0,0-.6-.042l-.052-.051v-.3l.052-.058q.52.033,1.485.032.881,0,1.28-.032l.058.058v.3l-.051.051a4.345,4.345,0,0,0-.656.048.413.413,0,0,0-.289.139.734.734,0,0,0-.081.283q-.022.186-.044.888t-.023,1.01v3.055l.006,1.769q.013.867.025,1.743a10.352,10.352,0,0,0-1.112-.27l-.457-.54-1.37-1.673-4.361-5.448v4.934q0,.3.023,1.055a8.484,8.484,0,0,0,.054.92.516.516,0,0,0,.084.222.487.487,0,0,0,.222.113,3.172,3.172,0,0,0,.7.058l.051.051v.3l-.051.052a8.981,8.981,0,0,0-1.081-.045Q774.073,290.1,773.354,290.145Z" transform="translate(-634.845 -268.645)" fill="#fff"/>
      <path id="Path_28931" data-name="Path 28931" d="M798.236,281.017l.052-.045q1.112.051,1.518.051l3.01-.064a7.692,7.692,0,0,1,2.11.241,3.628,3.628,0,0,1,1.464.836,3.975,3.975,0,0,1,.971,1.383,4.289,4.289,0,0,1,.332,1.682,5.079,5.079,0,0,1-.3,1.718,4.994,4.994,0,0,1-.859,1.521,4.7,4.7,0,0,1-1.267,1.084,4.579,4.579,0,0,1-1.425.55,7.657,7.657,0,0,1-1.46.138q-.5,0-1.891-.039-.457-.012-.6-.013-.444,0-1.074.051l-.051-.051v-.212l.051-.065a3.4,3.4,0,0,0,.434-.241,5.012,5.012,0,0,0,.09-1.126q.036-1.077.036-1.644v-2.361l-.007-1.46c0-.318,0-.576-.012-.775a2.458,2.458,0,0,0-.046-.428.485.485,0,0,0-.074-.18.318.318,0,0,0-.135-.087,1.521,1.521,0,0,0-.319-.061l-.489-.039-.052-.045Zm2.38,8.394a7.907,7.907,0,0,0,1.512.129,4.908,4.908,0,0,0,2.4-.5,3.115,3.115,0,0,0,1.341-1.485,5.34,5.34,0,0,0,.444-2.22,3.892,3.892,0,0,0-.971-2.824,4.1,4.1,0,0,0-3.062-1,10.448,10.448,0,0,0-1.659.129q-.052,1.055-.052,2.38v2.02l.013,1.891Q800.578,288.478,800.616,289.412Z" transform="translate(-648.484 -268.606)" fill="#fff"/>
      <path id="Path_28932" data-name="Path 28932" d="M821.969,290.02l-.058-.051v-.334l.058-.052a2.73,2.73,0,0,0,.6-.048.515.515,0,0,0,.241-.167,5.264,5.264,0,0,0,.428-.82l.675-1.466,1.75-3.963q.495-1.165.984-2.329h.418l2.746,6.458.367.862q.161.366.37.8a2.415,2.415,0,0,0,.289.508.535.535,0,0,0,.2.119,2.119,2.119,0,0,0,.531.048l.051.052v.334l-.051.051q-.681-.058-1.228-.058-1.069.032-2.136.058l-.051-.051v-.334l.051-.052a5.138,5.138,0,0,0,.9-.061.214.214,0,0,0,.18-.222,1.1,1.1,0,0,0-.09-.373l-.791-1.962h-3.724l-.7,1.647a1.94,1.94,0,0,0-.186.65.252.252,0,0,0,.174.239,2.944,2.944,0,0,0,.875.083l.058.052v.334l-.051.051q-.83-.051-1.454-.051Q822.69,289.969,821.969,290.02Zm2.933-3.608h3.255l-1.614-3.879Z" transform="translate(-661.404 -268.514)" fill="#fff"/>
      <path id="Path_28933" data-name="Path 28933" d="M851.046,280.988l.058.058q-.058.579-.058,2.02l-.051.051h-.3l-.051-.058-.071-.592a5.442,5.442,0,0,0-.08-.582.277.277,0,0,0-.093-.154,1.18,1.18,0,0,0-.418-.08q-.354-.033-.791-.032h-1.216q-.051,1.454-.052,1.679v3.75l.014,1.255q.006.726.035.942a.562.562,0,0,0,.09.283.5.5,0,0,0,.235.116,5.135,5.135,0,0,0,.861.074l.045.039v.322l-.045.051q-1.646-.051-1.839-.051t-1.833.051l-.051-.051v-.322l.051-.039a6.742,6.742,0,0,0,.8-.064.585.585,0,0,0,.264-.1.515.515,0,0,0,.112-.26,5.249,5.249,0,0,0,.045-.888l.013-1.357V283.3q0-.1-.051-1.679h-.959q-.591,0-1.023.026c-.287.017-.453.061-.5.132a2.332,2.332,0,0,0-.126.691l-.064.592-.058.058h-.3l-.051-.051q-.012-1.551-.058-2.02l.058-.058q1.12.051,3.725.051Q849.972,281.039,851.046,280.988Z" transform="translate(-673.204 -268.622)" fill="#fff"/>
      <path id="Path_28934" data-name="Path 28934" d="M862.685,280.988l.8.025q.791.026,1.035.026.219,0,1.846-.051l.052.045v.322l-.052.045q-.443.013-.684.039a.838.838,0,0,0-.351.1.453.453,0,0,0-.145.332,5.689,5.689,0,0,0-.035.724l-.014,1.48v2.978l.007,1.255a8.815,8.815,0,0,0,.039.939.6.6,0,0,0,.093.283.48.48,0,0,0,.235.119,5.075,5.075,0,0,0,.855.074l.052.039v.322l-.052.051-1.132-.039q-.457-.012-.714-.013-.2,0-1.839.051l-.051-.051v-.322l.051-.039a6.827,6.827,0,0,0,.8-.064.588.588,0,0,0,.267-.1.5.5,0,0,0,.109-.26,5.864,5.864,0,0,0,.048-.888l.006-1.357v-2.978l-.013-1.254q-.007-.733-.035-.946a.577.577,0,0,0-.09-.283.459.459,0,0,0-.234-.116,5.536,5.536,0,0,0-.855-.071l-.051-.045v-.322Z" transform="translate(-683.628 -268.622)" fill="#fff"/>
      <path id="Path_28935" data-name="Path 28935" d="M873.521,285.428a5.7,5.7,0,0,1,.277-1.8,4.169,4.169,0,0,1,.942-1.547,4.563,4.563,0,0,1,1.6-1.1,5.5,5.5,0,0,1,2.122-.389,4.965,4.965,0,0,1,3.493,1.193,4.2,4.2,0,0,1,1.3,3.258,5.337,5.337,0,0,1-.636,2.611,4.466,4.466,0,0,1-1.824,1.8,5.5,5.5,0,0,1-2.667.643,5.172,5.172,0,0,1-1.93-.351,3.936,3.936,0,0,1-1.5-1.045,4.242,4.242,0,0,1-.9-1.608A5.729,5.729,0,0,1,873.521,285.428Zm1.338-.425a6.255,6.255,0,0,0,.254,1.689,4.44,4.44,0,0,0,.759,1.55,3.264,3.264,0,0,0,1.164.962,3.7,3.7,0,0,0,3.278-.142,2.87,2.87,0,0,0,1.183-1.418,5.507,5.507,0,0,0,.406-2.158,5.746,5.746,0,0,0-.463-2.348,3.1,3.1,0,0,0-1.319-1.524,3.839,3.839,0,0,0-1.9-.476,3.184,3.184,0,0,0-2.464.978A4.128,4.128,0,0,0,874.859,285Z" transform="translate(-689.569 -268.405)" fill="#fff"/>
      <path id="Path_28936" data-name="Path 28936" d="M897.6,290.145l-.058-.058v-.3l.058-.051a4.58,4.58,0,0,0,.627-.045.47.47,0,0,0,.3-.129.6.6,0,0,0,.09-.289q.023-.2.045-.9t.023-1v-5.2a.806.806,0,0,0-.12-.486.522.522,0,0,0-.325-.2,4.236,4.236,0,0,0-.7-.048l-.051-.052v-.3l.051-.058q.888.033,1.165.032.649,0,1.068-.032l2.052,2.663,3.017,3.782q.546.688,1.112,1.306V283.8q0-.232-.022-.987t-.055-.958a.46.46,0,0,0-.112-.273.628.628,0,0,0-.3-.106,4.439,4.439,0,0,0-.6-.042l-.052-.051v-.3l.052-.058q.52.033,1.485.032.881,0,1.28-.032l.058.058v.3l-.051.051a4.345,4.345,0,0,0-.656.048.412.412,0,0,0-.289.139.732.732,0,0,0-.081.283q-.023.186-.045.888t-.023,1.01v3.055l.006,1.769q.013.867.025,1.743a10.358,10.358,0,0,0-1.112-.27l-.457-.54-1.37-1.673-4.361-5.448v4.934q0,.3.023,1.055a8.486,8.486,0,0,0,.055.92.509.509,0,0,0,.084.222.482.482,0,0,0,.222.113,3.172,3.172,0,0,0,.7.058l.051.051v.3l-.051.052a8.979,8.979,0,0,0-1.081-.045Q898.322,290.1,897.6,290.145Z" transform="translate(-702.652 -268.645)" fill="#fff"/>
      <path id="Path_28937" data-name="Path 28937" d="M468.8,307.784l.8.026q.791.025,1.036.025.218,0,1.846-.051l.051.045v.322l-.051.045q-.444.013-.685.038a.844.844,0,0,0-.351.1.456.456,0,0,0-.145.332,5.687,5.687,0,0,0-.035.724l-.013,1.479v2.978l.006,1.255a8.705,8.705,0,0,0,.039.939.606.606,0,0,0,.093.283.48.48,0,0,0,.235.119,5.1,5.1,0,0,0,.856.074l.051.039v.322l-.051.051-1.133-.039q-.457-.012-.714-.013-.2,0-1.84.051l-.051-.051v-.322l.051-.039a6.7,6.7,0,0,0,.8-.065.584.584,0,0,0,.267-.1.5.5,0,0,0,.109-.261,5.918,5.918,0,0,0,.048-.888l.006-1.357v-2.978l-.013-1.254q-.006-.734-.035-.946a.577.577,0,0,0-.09-.283.466.466,0,0,0-.235-.116,5.469,5.469,0,0,0-.855-.071l-.051-.045v-.322Z" transform="translate(-468.671 -283.245)" fill="#fff"/>
      <path id="Path_28938" data-name="Path 28938" d="M479.759,316.941l-.058-.058v-.3l.058-.051a4.49,4.49,0,0,0,.627-.045.47.47,0,0,0,.3-.129.6.6,0,0,0,.09-.289q.022-.2.045-.9t.023-1v-5.2a.806.806,0,0,0-.119-.486.519.519,0,0,0-.324-.2,4.293,4.293,0,0,0-.7-.049l-.051-.051v-.3l.051-.058q.888.032,1.164.032.65,0,1.068-.032l2.052,2.663L487,314.272q.546.688,1.113,1.306V310.6q0-.232-.023-.987t-.055-.958a.462.462,0,0,0-.113-.273.623.623,0,0,0-.3-.106,4.514,4.514,0,0,0-.6-.042l-.051-.052v-.3l.051-.058q.521.032,1.486.032.881,0,1.28-.032l.058.058v.3l-.052.052a4.358,4.358,0,0,0-.656.048.412.412,0,0,0-.289.139.728.728,0,0,0-.08.283q-.023.186-.045.888t-.023,1.01v3.055l.006,1.769q.013.867.026,1.743a10.406,10.406,0,0,0-1.113-.27l-.457-.54-1.37-1.673-4.361-5.448v4.934q0,.3.023,1.055a8.485,8.485,0,0,0,.055.92.528.528,0,0,0,.084.222.487.487,0,0,0,.222.113,3.178,3.178,0,0,0,.7.058l.052.051v.3l-.052.052a8.959,8.959,0,0,0-1.081-.045Q480.48,316.9,479.759,316.941Z" transform="translate(-474.62 -283.268)" fill="#fff"/>
      <path id="Path_28939" data-name="Path 28939" d="M513.43,316.941l-.058-.058v-.3l.058-.051a4.483,4.483,0,0,0,.627-.045.468.468,0,0,0,.3-.129.6.6,0,0,0,.09-.289q.022-.2.045-.9t.023-1v-5.2a.806.806,0,0,0-.119-.486.521.521,0,0,0-.324-.2,4.286,4.286,0,0,0-.7-.049l-.052-.051v-.3l.052-.058q.887.032,1.164.032.649,0,1.068-.032l2.052,2.663,3.017,3.783q.547.688,1.112,1.306V310.6q0-.232-.022-.987t-.055-.958a.459.459,0,0,0-.112-.273.623.623,0,0,0-.3-.106,4.52,4.52,0,0,0-.6-.042l-.051-.052v-.3l.051-.058q.52.032,1.485.032.881,0,1.28-.032l.058.058v.3l-.052.052a4.359,4.359,0,0,0-.656.048.412.412,0,0,0-.289.139.726.726,0,0,0-.08.283q-.023.186-.045.888t-.023,1.01v3.055l.006,1.769q.013.867.025,1.743a10.35,10.35,0,0,0-1.112-.27l-.457-.54-1.37-1.673-4.361-5.448v4.934q0,.3.023,1.055a8.451,8.451,0,0,0,.055.92.511.511,0,0,0,.084.222.483.483,0,0,0,.222.113,3.181,3.181,0,0,0,.7.058l.051.051v.3l-.051.052a8.97,8.97,0,0,0-1.081-.045Q514.15,316.9,513.43,316.941Z" transform="translate(-492.995 -283.268)" fill="#fff"/>
      <path id="Path_28940" data-name="Path 28940" d="M538.92,307.829l.051-.045q2.206.039,2.824.038,2.11,0,3.757-.038l.032.045a10.985,10.985,0,0,0-.238,1.937l-.039.051h-.315l-.058-.051a.891.891,0,0,0,.006-.1,6.246,6.246,0,0,0-.084-1.043,3.5,3.5,0,0,0-1.122-.235q-.718-.055-1.078-.055-.508,0-1.3.071l-.026,1.029-.02,1.177-.019,1.306q.694.039,1.28.039t.991-.039a1.671,1.671,0,0,0,.466-.08.267.267,0,0,0,.1-.16,2.4,2.4,0,0,0,.061-.422l.026-.4.051-.051h.3l.051.051q-.014.7-.032,1.409l.032,1.447-.051.051h-.3l-.051-.051-.045-.386a5.415,5.415,0,0,0-.084-.537.284.284,0,0,0-.119-.151,1.291,1.291,0,0,0-.479-.1q-.385-.038-1.061-.038-.373,0-1.138.032-.032.54-.033,1.8,0,1.351.033,1.987h1.183q1.563,0,1.956-.038a2.583,2.583,0,0,0,.746-.187,6.969,6.969,0,0,0,.19-.685c.088-.358.138-.583.151-.672l.064-.045h.309l.051.045a8.968,8.968,0,0,0-.112.964q-.054.689-.055,1.177l-.045.051q-1.229-.038-3.216-.039l-1.75-.013q-.611,0-1.273.051l-.052-.051v-.212l.052-.064a3.538,3.538,0,0,0,.434-.241,5.037,5.037,0,0,0,.09-1.126q.035-1.077.035-1.644v-2.361l-.006-1.46c0-.318,0-.576-.013-.776a2.38,2.38,0,0,0-.045-.427.479.479,0,0,0-.074-.18.312.312,0,0,0-.135-.087,1.509,1.509,0,0,0-.319-.061l-.489-.038-.051-.045Z" transform="translate(-506.966 -283.245)" fill="#fff"/>
      <path id="Path_28941" data-name="Path 28941" d="M557.536,307.776q1.621.051,2.065.051.6,0,1.357-.032.8-.026.984-.025a5,5,0,0,1,1.489.187,1.962,1.962,0,0,1,.975.681,1.889,1.889,0,0,1,.386,1.2,2.475,2.475,0,0,1-.27,1.119,2.693,2.693,0,0,1-.753.92,3.108,3.108,0,0,1-2.007.707,4.942,4.942,0,0,1-.888-.09l-.109-.392.058-.065a3.7,3.7,0,0,0,.785.109,1.751,1.751,0,0,0,1.354-.556,2.023,2.023,0,0,0,.511-1.425,1.869,1.869,0,0,0-.531-1.4,2.209,2.209,0,0,0-1.6-.521,4.347,4.347,0,0,0-1.286.219q-.058.495-.058,2.393v2.978L560,315.09a8.924,8.924,0,0,0,.038.939.6.6,0,0,0,.094.283.476.476,0,0,0,.235.119,5.084,5.084,0,0,0,.855.074l.051.039v.322l-.051.051q-1.64-.051-1.847-.051t-1.839.051l-.052-.051v-.322l.052-.039a6.7,6.7,0,0,0,.8-.065.578.578,0,0,0,.266-.1.5.5,0,0,0,.11-.261,5.928,5.928,0,0,0,.048-.888l.007-1.357v-2.978l-.013-1.254q-.006-.734-.036-.946a.576.576,0,0,0-.09-.283.466.466,0,0,0-.235-.116,5.456,5.456,0,0,0-.855-.071l-.052-.045v-.322Z" transform="translate(-517.097 -283.238)" fill="#fff"/>
      <path id="Path_28942" data-name="Path 28942" d="M574.066,316.816l-.058-.051v-.334l.058-.052a2.758,2.758,0,0,0,.6-.048.518.518,0,0,0,.241-.167,5.276,5.276,0,0,0,.427-.82l.676-1.466,1.749-3.963q.5-1.165.984-2.329h.418l2.747,6.458.367.862q.161.366.37.8a2.435,2.435,0,0,0,.29.508.543.543,0,0,0,.2.119,2.143,2.143,0,0,0,.531.048l.052.052v.334l-.052.051q-.681-.058-1.228-.058-1.068.032-2.136.058l-.051-.051v-.334l.051-.052a5.138,5.138,0,0,0,.9-.061.214.214,0,0,0,.18-.222,1.094,1.094,0,0,0-.09-.373l-.791-1.962H576.78l-.7,1.647a1.95,1.95,0,0,0-.186.65.252.252,0,0,0,.174.238,2.942,2.942,0,0,0,.875.083l.058.052v.334l-.051.051q-.83-.051-1.454-.051Q574.786,316.764,574.066,316.816ZM577,313.207h3.255l-1.614-3.879Z" transform="translate(-526.115 -283.137)" fill="#fff"/>
      <path id="Path_28943" data-name="Path 28943" d="M597.752,307.829l.051-.045q1.6.051,1.84.051.218,0,1.846-.051l.052.045v.322l-.052.045q-.444.013-.685.038a.849.849,0,0,0-.351.1.458.458,0,0,0-.144.332,5.7,5.7,0,0,0-.035.724l-.013,1.479v2.843q0,1.068.013,1.492l.032,1.113h1.312q1.569,0,1.958-.038a2.666,2.666,0,0,0,.75-.187,5.325,5.325,0,0,0,.2-.739q.131-.579.138-.669l.058-.051h.315l.045.051a9.747,9.747,0,0,0-.106,1q-.054.74-.055,1.2l-.051.051q-1.223-.038-3.21-.039l-1.878-.013q-.643,0-1.312.051l-.051-.051v-.212l.051-.064a2.716,2.716,0,0,0,.438-.251,4.157,4.157,0,0,0,.081-.83q.041-.785.041-1.891v-2.76l-.013-1.254q-.007-.734-.035-.946a.582.582,0,0,0-.09-.283.466.466,0,0,0-.235-.116,5.471,5.471,0,0,0-.856-.071l-.051-.045Z" transform="translate(-539.073 -283.245)" fill="#fff"/>
    </g>
  </g>
</svg>
